<svg width="155" height="43" viewBox="0 0 155 43" fill="none" xmlns="http://www.w3.org/2000/svg">
<g clip-path="url(#clip0_2_85)">
<path d="M4.49426 41.6065C4.16635 39.6661 3.53754 35.9626 3.71499 31.7346L0 42H4.55984L4.49426 41.6065ZM26.4023 1H14.8368L8.97309 17.2063C9.39358 16.728 9.85265 16.2612 10.3426 15.8098C15.7974 10.7986 23.1541 8.9045 29.0256 8.24868L26.4023 1V1ZM37.0883 30.5348L35.7535 26.8468C34.1178 29.8906 31.8225 33.1696 28.6514 36.0321L29.7663 39.3382L30.6651 42H41.2392L37.0883 30.5348Z" fill="#00CC96"/>
<path d="M38.9284 10.0541C38.9284 10.0541 36.579 41.6837 7.1098 42C8.29412 39.9593 9.60576 37.9995 10.9945 36.1285C20.1026 23.8185 32.3818 15.4742 32.3818 15.4742C22.6217 18.9848 14.9371 28.7371 10.0918 35.9356C8.59889 38.15 7.37984 40.1213 6.44627 41.5988C6.14922 39.8242 5.5127 36.3446 5.613 32.3634C5.73259 27.3252 7.02493 21.473 11.6465 17.2334C18.7679 10.6868 29.4962 9.81493 35.1439 9.86122C37.4663 9.87665 38.9284 10.0541 38.9284 10.0541Z" fill="#00CC96"/>
<g style="mix-blend-mode:multiply">
<path d="M37.0883 30.5348C35.3021 33.6673 32.9258 36.765 29.7663 39.3382L28.6514 36.0321C31.8224 33.1696 34.1178 29.8906 35.7535 26.8468L37.0883 30.5348Z" fill="#D1D3D4"/>
</g>
<g style="mix-blend-mode:multiply">
<path d="M10.0918 35.9356C8.59889 38.15 7.37984 40.1213 6.44627 41.5988C6.14922 39.8242 5.5127 36.3446 5.613 32.3634C6.65073 34.0569 8.08967 35.3801 10.0918 35.9356V35.9356Z" fill="#D1D3D4"/>
</g>
<g style="mix-blend-mode:multiply">
<path d="M38.9284 10.0541C38.9284 10.0541 36.579 41.6837 7.10979 42C8.29412 39.9592 9.60575 37.9995 10.9945 36.1285C13.0237 36.441 15.5698 36.0282 18.7679 34.5739C32.1156 28.4979 34.7273 16.2342 35.1439 9.86121C37.4663 9.87664 38.9284 10.0541 38.9284 10.0541Z" fill="#D1D3D4"/>
</g>
<path d="M68.056 29.78H61.056L59.992 33H54.224L61.42 13.26H67.748L74.916 33H69.12L68.056 29.78ZM66.684 25.58L64.556 19.196L62.456 25.58H66.684ZM82.1927 12.28V33H76.7047V12.28H82.1927ZM90.806 12.28V33H85.318V12.28H90.806ZM110.003 17.292V33H104.487V30.76C104.021 31.4693 103.377 32.048 102.555 32.496C101.734 32.9253 100.791 33.14 99.7273 33.14C97.8979 33.14 96.4513 32.5427 95.3873 31.348C94.3419 30.1347 93.8193 28.492 93.8193 26.42V17.292H99.2793V25.72C99.2793 26.616 99.5126 27.3253 99.9793 27.848C100.465 28.352 101.099 28.604 101.883 28.604C102.686 28.604 103.321 28.352 103.787 27.848C104.254 27.3253 104.487 26.616 104.487 25.72V17.292H110.003ZM118.615 20.064C119.231 19.168 119.977 18.4587 120.855 17.936C121.732 17.4133 122.675 17.152 123.683 17.152V23.004H122.143C120.948 23.004 120.061 23.2373 119.483 23.704C118.904 24.1707 118.615 24.9827 118.615 26.14V33H113.127V17.292H118.615V20.064ZM140.658 24.964C140.658 25.3933 140.63 25.8227 140.574 26.252H130.186C130.242 27.1107 130.475 27.7547 130.886 28.184C131.315 28.5947 131.857 28.8 132.51 28.8C133.425 28.8 134.078 28.3893 134.47 27.568H140.322C140.079 28.6507 139.603 29.6213 138.894 30.48C138.203 31.32 137.326 31.9827 136.262 32.468C135.198 32.9533 134.022 33.196 132.734 33.196C131.185 33.196 129.803 32.8693 128.59 32.216C127.395 31.5627 126.453 30.6293 125.762 29.416C125.09 28.2027 124.754 26.7747 124.754 25.132C124.754 23.4893 125.09 22.0707 125.762 20.876C126.434 19.6627 127.367 18.7293 128.562 18.076C129.775 17.4227 131.166 17.096 132.734 17.096C134.283 17.096 135.655 17.4133 136.85 18.048C138.045 18.6827 138.978 19.5973 139.65 20.792C140.322 21.968 140.658 23.3587 140.658 24.964ZM135.058 23.592C135.058 22.92 134.834 22.3973 134.386 22.024C133.938 21.632 133.378 21.436 132.706 21.436C132.034 21.436 131.483 21.6227 131.054 21.996C130.625 22.3507 130.345 22.8827 130.214 23.592H135.058Z" fill="white"/>
</g>
<defs>
<clipPath id="clip0_2_85">
<rect width="155" height="43" fill="white"/>
</clipPath>
</defs>
</svg>
